@startuml
skinparam defaultFontSize 20
skinparam nodesep 30
skinparam ranksep 30


package Interventions #e8e8ffff {
  class Intervention {
    +id: int
  }
  KeySituation --> Intervention: "triggers"
  Interval --> Intervention : "triggers"

  class MechanicIntervention {
    +id: int
  }
    class ImmediateIntervention  {
    +id: int
  }

  ImmediateIntervention  <|-- Intervention 
  MechanicIntervention <|-- Intervention

  note right of Intervention
  Represents a planned activity, stimulus, or interaction
  aimed at influencing user behavior or collecting data.
  Examples: questionnaires, prompts, mini-games, etc.
  end note

  class Questionnaire {
    +questionCount: int
    +estimatedTime: int
  }
  class AlertMessage {
    +questionCount: int
    +estimatedTime: int
  }

  note right of AlertMessage
    Displays general information, warnings, or alerts intended 
    to guide, inform, or prompt the user during interaction.
  end note

  Questionnaire --> ImmediateIntervention  : "instance of"
  AlertMessage --> ImmediateIntervention  : "instance of"

  object Intrinsic_Motivation_Inventory 
  Intrinsic_Motivation_Inventory --> Questionnaire : "instance of"

  object User_Engagement_Scale
  User_Engagement_Scale --> Questionnaire : "instance of"

  class MotivationalMessage #cdeaff {
    +id: int
    +text: String
  }
  
  note right of MotivationalMessage
    A mechanic that delivers messages to the user to motivate them. 
    While active for all users, the content and tone adapt based on 
    individual profiles, goals, or behavioral state.
  end note

  MotivationalMessage --> MechanicIntervention : "instance of"

  object MotivationalMessagePM_LOW
  MotivationalMessagePM_LOW : MotivationalMessage
  MotivationalMessagePM_LOW : userId = 1
  MotivationalMessagePM_LOW --> MotivationalMessage : "instance of"

  class Interval{
    +date: DateTime
  }

  object DailyInterval 
  DailyInterval --> Interval : "instance of"

  object WeeklyInterval 
  WeeklyInterval --> Interval : "instance of"

  object MonthlyInterval
  MonthlyInterval --> Interval : "instance of"

  object HourlyInterval
  HourlyInterval --> Interval : "instance of"
}

MotivationalMechanics.GameMechanic --|>  Interventions.MechanicIntervention 
MotivationalMechanics.GameMechanic --> Interventions.MechanicIntervention : "triggers"
@enduml